<?xml version="1.0" standalone="no"?><!DOCTYPE svg PUBLIC "-//W3C//DTD SVG 1.1//EN" "http://www.w3.org/Graphics/SVG/1.1/DTD/svg11.dtd"><svg t="1676731125524" class="icon" viewBox="0 0 1024 1024" version="1.1" xmlns="http://www.w3.org/2000/svg" p-id="7580" width="32" height="32" xmlns:xlink="http://www.w3.org/1999/xlink"><path d="M790.826667 588.373333H634.666667a5.333333 5.333333 0 0 1-5.333334-5.333333V515.68a5.333333 5.333333 0 0 1 2.773334-4.64 249.6 249.6 0 1 0-240 0 5.333333 5.333333 0 0 1 2.773333 4.64v67.306667a5.333333 5.333333 0 0 1-5.333333 5.333333H233.173333A62.506667 62.506667 0 0 0 170.666667 650.666667v180.213333a5.333333 5.333333 0 0 0 5.333333 5.333333h672a5.333333 5.333333 0 0 0 5.333333-5.333333V650.666667a62.506667 62.506667 0 0 0-62.506666-62.293334zM778.666667 756.426667a5.333333 5.333333 0 0 1-5.333334 5.333333H250.666667a5.333333 5.333333 0 0 1-5.333334-5.333333v-60a33.44 33.44 0 0 1 33.44-33.386667H464a5.333333 5.333333 0 0 0 5.333333-5.333333v-186.666667a5.333333 5.333333 0 0 0-2.826666-4.746667l-36.693334-19.573333a174.933333 174.933333 0 1 1 164.373334 0l-36.693334 19.573333a5.333333 5.333333 0 0 0-2.826666 4.746667v186.666667a5.333333 5.333333 0 0 0 5.333333 5.333333h185.226667a33.44 33.44 0 0 1 33.44 33.386667zM848 906.666667H176a5.333333 5.333333 0 0 0-5.333333 5.333333v64a5.333333 5.333333 0 0 0 5.333333 5.333333h672a5.333333 5.333333 0 0 0 5.333333-5.333333v-64a5.333333 5.333333 0 0 0-5.333333-5.333333z" p-id="7581" fill="#2c2c2c"></path></svg>