<?xml version="1.0" standalone="no"?><!DOCTYPE svg PUBLIC "-//W3C//DTD SVG 1.1//EN" "http://www.w3.org/Graphics/SVG/1.1/DTD/svg11.dtd"><svg t="1676730339382" class="icon" viewBox="0 0 1024 1024" version="1.1" xmlns="http://www.w3.org/2000/svg" p-id="14869" width="32" height="32" xmlns:xlink="http://www.w3.org/1999/xlink"><path d="M495.104176 3.583963L110.894845 171.603546A42.666222 42.666222 0 0 0 85.337778 210.685805v387.238633c0 186.622056 157.950355 338.855137 413.222362 423.888918a42.666222 42.666222 0 0 0 26.965052 0C781.223862 936.60891 938.662222 785.015823 938.662222 598.052437V210.685805a42.666222 42.666222 0 0 0-25.557067-39.082259L529.27982 3.583963a42.666222 42.666222 0 0 0-34.175644 0z m17.066489 85.631108L853.329778 238.589515v359.462922l-0.213331 9.471901c-5.375944 132.393288-123.22005 248.91474-324.81795 322.89797l-16.255831 5.802606-1.279986-0.426662C295.426256 860.535036 170.670222 737.144321 170.670222 597.924438V238.589515l341.500443-149.374444z" fill="#333333" p-id="14870"></path><path d="M300.076874 375.590754c0-110.420183 95.743003-140.883866 250.877387-104.745575a42.666222 42.666222 0 1 1-19.370465 83.113801c-109.566859-25.514401-146.174477-13.866522-146.174477 21.631774 0 22.058437 6.4426 30.549015 38.271601 45.098197l15.445172 6.741263c72.063249 30.591681 103.081593 58.452724 103.081593 126.676014 0 98.772304-95.529672 137.811898-246.696097 126.633348a42.666222 42.666222 0 0 1 6.314601-85.076447c108.030875 7.978584 155.049052-11.221216 155.049052-41.556901 0-20.095791-5.973271-27.861043-37.204946-42.026229l-15.189175-6.655931c-72.61791-30.762346-104.404246-59.903376-104.404246-129.833314zM706.301976 270.930511a42.666222 42.666222 0 0 1 37.503609 42.538224l-0.341329 4.991948-39.76492 326.695263a42.666222 42.666222 0 0 1-85.03378-5.333277l0.298663-4.991948 39.807585-326.695264a42.666222 42.666222 0 0 1 42.538224-37.503609l4.991948 0.298663z" fill="#191919" p-id="14871"></path></svg>